# xmcd
#
# Track frame offsets:
#	150
#	28897
#	43707
#	56782
#	78402
#	104810
#	119280
#	134842
#	158180
#	169750
#	190717
#	208062
#	226382
#	242005
#	262505
#	282287
#	301382
#	312185
#	331487
#	348207
#
# Disc length: 4756
#
# Revision: 1
# Processed by: cddbd v1.5.1PL0 Copyright (c) Steve Scherf et al.
# Submitted via: CDex 1.40Release
# Normalized: r0:DSETVAR1,TDELIM( - )
#
DISCID=24129214
DTITLE=Various Artist - Born With The Blues
DYEAR=1997
DGENRE=Blues
TTITLE0=Buddy Guy - First time I Met the Blues
TTITLE1=Billy Boy Arnold and Tony McPhee - Don't Stay Out All Night
TTITLE2=Muddy Waters - Hoochie Coochie Man
TTITLE3=Buster Benton and Carey Bell - Born With The Blues
TTITLE4=Buddy Guy and Junior Wells - Country Girl
TTITLE5=Billy Boy Arnold and Tony McPhee - I Wish You Would
TTITLE6=Bo Diddley - Road Runner
TTITLE7=Magic Slim - Cummins Prison Farm
TTITLE8=Earl Hooker - The Leading Brand
TTITLE9=Mighty Joe Young - Why Do You Want To Hurt Me
TTITLE10=Johnny Little John - The Sun Is Shining
TTITLE11=Koko Taylor - Wang Dang Doodle
TTITLE12=Sunnyland Slim - I Had It So Hard
TTITLE13=Muddy Waters - She's Nineteen Years Old
TTITLE14=Fenton Robinson - Yes You Know What Love Is
TTITLE15=Willie Williams - You Went Away Baby
TTITLE16=Jody Williams - Moaning For Molasses
TTITLE17=Byther Smith - I Don't Like To Travel
TTITLE18=Brewer Phillips - Woke This Morning
TTITLE19=Earl Hooker - The Foxtrot
EXTD=YEAR: 1997 ID3G: 0
EXTT0=
EXTT1=
EXTT2=
EXTT3=
EXTT4=
EXTT5=
EXTT6=
EXTT7=
EXTT8=
EXTT9=
EXTT10=
EXTT11=
EXTT12=
EXTT13=
EXTT14=
EXTT15=
EXTT16=
EXTT17=
EXTT18=
EXTT19=
PLAYORDER=
